<?xml version="1.0" encoding="utf-8"?>
<!-- Generator: Adobe Illustrator 22.1.0, SVG Export Plug-In . SVG Version: 6.00 Build 0)  -->
<svg version="1.1" id="Layer_1" xmlns="http://www.w3.org/2000/svg" xmlns:xlink="http://www.w3.org/1999/xlink" x="0px" y="0px"
	 viewBox="0 0 180 180" style="enable-background:new 0 0 180 180;" xml:space="preserve">
<path d="M17,43h45.1c7.4,0,12.8,1.7,16.3,5c3.5,3.3,5.2,8.4,5.2,15.3c0,4.5-1,8.2-2.9,11c-2,2.8-4.4,4.8-7.2,5.9
	c6.1,1.7,10.2,5.7,12.4,12.2c0.8,2.3,1.1,5,1.1,8.1c0,7.4-1.7,12.8-5.2,16.3c-3.5,3.5-8.9,5.2-16.3,5.2H17V43z M56.2,59H37v16h19.2
	c3.7,0,6.8-3,6.8-6.8v-2.5C63,62,60,59,56.2,59z M59.2,90H37v16h22.2c3.7,0,6.8-3,6.8-6.8v-2.5C66,93,63,90,59.2,90z"/>
<path d="M97,43h47.3c8,0,13.7,1.8,17.3,5.3c3.6,3.5,5.4,9.2,5.4,17.1v11.2c0,7.8-1.8,13.5-5.4,17.1c-3.6,3.5-9.4,5.3-17.3,5.3H117
	v23H97V43z M140.2,59H118v25h22.2c3.7,0,6.8-3,6.8-6.8V65.8C147,62,144,59,140.2,59z"/>
</svg>
