<?xml version="1.0" encoding="utf-8"?>
<!-- Generator: Adobe Illustrator 22.1.0, SVG Export Plug-In . SVG Version: 6.00 Build 0)  -->
<svg version="1.1" id="Layer_1" xmlns="http://www.w3.org/2000/svg" xmlns:xlink="http://www.w3.org/1999/xlink" x="0px" y="0px"
	 viewBox="0 0 230 30" style="enable-background:new 0 0 230 30;" xml:space="preserve">
<style type="text/css">
	.st0{fill:#1A1A1A;}
	.st1{fill:#231F20;}
	.st2{opacity:0.5;fill:#FFDD00;}
	.st3{fill:#FFDD00;}
	.st4{fill:#FFFFFF;}
	.st5{fill-rule:evenodd;clip-rule:evenodd;fill:none;}
	.st6{fill:#FFF100;}
	.st7{opacity:0.25;fill:#FFDD00;}
	.st8{fill:none;stroke:#FFDD00;stroke-width:2;stroke-miterlimit:10;}
	.st9{opacity:0.8;fill:#231F20;}
	.st10{fill:none;}
</style>
<g>
	<path d="M5,3.85h12.5632c2.052,0,3.5596,0.4663,4.5228,1.3979c0.9629,0.9321,1.4451,2.3511,1.4451,4.2566
		c0,1.2566-0.2726,2.2775-0.8168,3.0629c-0.5447,0.7854-1.2145,1.3351-2.0102,1.6492c1.6961,0.4609,2.8475,1.5918,3.455,3.3927
		c0.209,0.6494,0.3141,1.4033,0.3141,2.2619c0,2.0527-0.4819,3.5606-1.4448,4.5237c-0.9635,0.9635-2.4711,1.445-4.5228,1.445H5V3.85
		z M17.8773,10.1329c0-1.2566-0.628-1.8849-1.8843-1.8849h-5.3396v4.398h5.3396c1.2563,0,1.8843-0.6283,1.8843-1.8849V10.1329z
		 M18.8197,18.9289c0-1.2566-0.6283-1.8849-1.8846-1.8849h-6.2817v4.398h6.2817c1.2563,0,1.8846-0.6283,1.8846-1.8849V18.9289z"/>
	<path d="M44,25.84H27V3.85h17v4.398H32.5135v4.2409h9.0361v4.398h-9.0361v4.5551H44V25.84z"/>
	<path d="M51.9747,24.8466c-0.8912,0.8692-1.9879,1.3034-3.2919,1.3034c-1.3037,0-2.5313-0.105-3.6828-0.3141v-4.2401h1.4666
		c0.4124,0,0.7547-0.1359,1.0266-0.4083c0.2716-0.2719,0.4183-0.6071,0.4401-1.0051L48.911,3.85H67v21.9859h-5.8666V8.2472h-6.8445
		l-0.815,13.0345C53.365,22.7893,52.8656,23.9779,51.9747,24.8466z"/>
	<path d="M90,19.7389c0,2.1389-0.4874,3.6924-1.4615,4.6597c-0.9746,0.9678-2.5386,1.4514-4.6923,1.4514h-7.6923
		c-2.154,0-3.7182-0.4836-4.6923-1.4514C70.4872,23.4313,70,21.8778,70,19.7389V9.9611c0-2.1389,0.4872-3.692,1.4615-4.6597
		C72.4356,4.3341,73.9999,3.85,76.1538,3.85h7.6923c2.1537,0,3.7177,0.4841,4.6923,1.4514C89.5126,6.2691,90,7.8222,90,9.9611
		V19.7389z M84.4614,9.9611c0-1.2222-0.6152-1.8333-1.8459-1.8333h-5.2309c-1.2307,0-1.8462,0.6111-1.8462,1.8333v9.7778
		c0,1.2222,0.6155,1.8333,1.8462,1.8333h5.2309c1.2307,0,1.8459-0.6111,1.8459-1.8333V9.9611z"/>
	<path d="M93,3.85h12.8709c2.1453,0,3.7027,0.4977,4.6734,1.4922C111.5145,6.3372,112,7.9339,112,10.1329v3.1414
		c0,2.199-0.4855,3.7962-1.4556,4.7907c-0.9707,0.995-2.5282,1.4922-4.6734,1.4922h-7.3549V25.84H93V3.85z M106.4839,10.1329
		c0-1.2566-0.613-1.8849-1.8388-1.8849h-6.1291v6.9111h6.1291c1.2258,0,1.8388-0.6283,1.8388-1.8849V10.1329z"/>
	<path d="M132,25.84h-17V3.85h17v4.398h-11.4865v4.2409h9.0361v4.398h-9.0361v4.5551H132V25.84z"/>
	<path d="M154.2306,13.5885l-4.4872,7.8536h-4.4871l-4.4871-7.8536V25.84H135V3.85h6.0897L147.5,15.4733L153.9103,3.85H160v21.99
		h-5.7694V13.5885z"/>
	<path d="M181.9903,19.7389c0,2.1389-0.4875,3.6924-1.4615,4.6597c-0.9746,0.9678-2.5386,1.4514-4.6923,1.4514h-7.6923
		c-2.154,0-3.7182-0.4836-4.6923-1.4514c-0.9743-0.9673-1.4615-2.5208-1.4615-4.6597V9.9611c0-2.1389,0.4872-3.692,1.4615-4.6597
		c0.9741-0.9673,2.5384-1.4514,4.6923-1.4514h7.6923c2.1537,0,3.7177,0.4841,4.6923,1.4514
		c0.9741,0.9678,1.4615,2.5208,1.4615,4.6597V19.7389z M176.4517,9.9611c0-1.2222-0.6152-1.8333-1.8459-1.8333h-5.2309
		c-1.2307,0-1.8462,0.6111-1.8462,1.8333v9.7778c0,1.2222,0.6155,1.8333,1.8462,1.8333h5.2309c1.2307,0,1.8459-0.6111,1.8459-1.8333
		V9.9611z"/>
	<path d="M204,25.84h-5.6065V16.887h-7.787V25.84H185V3.85h5.6065v8.6389h7.787V3.85H204V25.84z"/>
	<path d="M218.3501,25.85h-5.7003V8.2501H206v-4.4h19v4.4h-6.6499V25.85z"/>
</g>
</svg>
